<svg width="96" height="96" xmlns="http://www.w3.org/2000/svg" xmlns:xlink="http://www.w3.org/1999/xlink" xml:space="preserve" overflow="hidden"><g transform="translate(-555 -60)"><path d="M629 111.95 639.1 101.85 645 107.75 645 91.75 629 91.75 634.9 97.65 625 107.55 608 124.55 593 109.55 561.9 140.65 566.1 144.85 593 117.95 608 132.95 629 111.95Z"/><path d="M578 80C578 82.7614 575.761 85 573 85 570.239 85 568 82.7614 568 80 568 77.2386 570.239 75 573 75 575.761 75 578 77.2386 578 80Z"/><path d="M621.17 105.71 622.17 104.71 624.46 102.42 621.68 89.92C621.595 89.4772 621.354 89.0797 621 88.8 619.802 87.8602 618.448 87.1392 617 86.67 614.388 85.777 611.552 85.777 608.94 86.67 607.492 87.1403 606.138 87.8613 604.94 88.8 604.594 89.0864 604.354 89.4809 604.26 89.92L603 95.78 603 95.78 601.69 89.92C601.598 89.4774 601.354 89.081 601 88.8 599.802 87.8602 598.448 87.1392 597 86.67 592.894 85.3449 588.399 86.1428 585 88.8 584.654 89.0864 584.414 89.4809 584.32 89.92L583 95.59C583 95.59 583 95.59 583 95.59L581.7 89.92C581.6 89.4782 581.353 89.0833 581 88.8 579.802 87.8613 578.448 87.1403 577 86.67 574.388 85.777 571.552 85.777 568.94 86.67 567.493 87.1424 566.14 87.8632 564.94 88.8 564.594 89.0864 564.354 89.4809 564.26 89.92L561.08 104.44C560.795 105.559 561.471 106.696 562.589 106.981 562.616 106.988 562.643 106.994 562.67 107 562.78 107.01 562.89 107.01 563 107 563.956 107.022 564.795 106.364 565 105.43L568 92 568 92 568 99.1 565 114 568 114 568 128.89 572 124.89 572 114 574 114 574 122.89 578 118.89 578 114 581 114 578 99.11 578 92.11 578 92.11 581 105.17C581.089 106.208 581.959 107.004 583 107L583 107C583.934 106.994 584.739 106.342 584.94 105.43L585 105 587.92 92.17C587.92 92.17 587.92 92.17 587.92 92.17L587.92 108.94 590.13 106.72C591.691 105.157 594.224 105.156 595.787 106.717 595.788 106.718 595.789 106.719 595.79 106.72L598 108.85 598 92.18C598 92.18 598 92.18 598 92.18L601 105.44C601.209 106.37 602.047 107.023 603 107L603 107C603.938 106.999 604.748 106.346 604.95 105.43L607.95 92.17C607.95 92.17 607.95 92.17 607.95 92.17L607.95 118.87 607.95 118.87 611.95 114.87 611.95 108 613.95 108 613.95 112.91 617.95 108.91 617.95 92.18C617.95 92.18 617.95 92.18 617.95 92.18L621.1 105.72Z"/><path d="M617.99 80C617.99 82.7614 615.751 85 612.99 85 610.229 85 607.99 82.7614 607.99 80 607.99 77.2386 610.229 75 612.99 75 615.751 75 617.99 77.2386 617.99 80Z"/><path d="M597.96 80C597.96 82.7614 595.721 85 592.96 85 590.199 85 587.96 82.7614 587.96 80 587.96 77.2386 590.199 75 592.96 75 595.721 75 597.96 77.2386 597.96 80Z"/></g></svg>