<svg width="96" height="96" xmlns="http://www.w3.org/2000/svg" xmlns:xlink="http://www.w3.org/1999/xlink" xml:space="preserve" overflow="hidden"><g transform="translate(-707 -145)"><path d="M762.91 200.14C762.91 198.279 761.401 196.77 759.54 196.77 757.679 196.77 756.17 198.279 756.17 200.14 756.17 202.001 757.679 203.51 759.54 203.51 761.401 203.51 762.91 202.001 762.91 200.14Z"/><path d="M750.3 196.78C748.439 196.775 746.925 198.279 746.92 200.14 746.914 202.001 748.419 203.514 750.28 203.52 752.141 203.525 753.654 202.021 753.66 200.16 753.66 200.153 753.66 200.147 753.66 200.14 753.654 198.287 752.153 196.785 750.3 196.78Z"/><path d="M755.66 204.32C755.418 203.911 754.891 203.776 754.482 204.018 754.357 204.092 754.254 204.196 754.18 204.32L753.18 205.98C752.937 206.395 753.076 206.928 753.49 207.171 753.624 207.249 753.776 207.29 753.93 207.29L755.93 207.29C756.41 207.273 756.785 206.869 756.768 206.389 756.763 206.253 756.726 206.119 756.66 206Z"/><path d="M797.55 225 758.47 157C757.371 155.084 754.927 154.421 753.01 155.52 752.394 155.873 751.883 156.384 751.53 157L712.45 225C711.345 226.913 712.001 229.359 713.914 230.464 714.521 230.814 715.209 230.999 715.91 231L794.09 231C796.299 230.998 798.088 229.205 798.086 226.996 798.085 226.295 797.9 225.607 797.55 225ZM736.13 200.85C736.364 200.621 736.648 200.45 736.96 200.35 736.406 199.331 736.782 198.056 737.8 197.501 738.819 196.947 740.094 197.323 740.649 198.342 740.925 198.85 740.98 199.45 740.8 200L743.07 201C743.604 202.45 744.375 203.802 745.35 205L745.35 205.7 739.56 203.12C739.448 203.367 739.296 203.593 739.11 203.79 738.282 204.618 736.938 204.618 736.11 203.79 735.282 202.962 735.282 201.618 736.11 200.79ZM748.72 212.16 740.47 215.32C740.574 215.574 740.628 215.846 740.63 216.12 740.63 217.28 739.69 218.22 738.53 218.22 737.37 218.22 736.43 217.28 736.43 216.12 736.429 215.793 736.508 215.47 736.66 215.18 735.554 214.831 734.94 213.651 735.289 212.545 735.638 211.439 736.818 210.826 737.924 211.175 738.445 211.339 738.881 211.699 739.14 212.18L746.22 209.47C746.846 210.117 747.71 210.479 748.61 210.47L748.72 210.47ZM759.12 209.81 759.12 213.17 757.44 213.17 757.44 210.65 755.76 210.65 755.76 213.17 754.08 213.17 754.08 210.65 752.4 210.65 752.4 213.17 750.72 213.17 750.72 209.81C750.715 209.116 750.154 208.555 749.46 208.55L748.61 208.55C747.925 208.561 747.361 208.015 747.35 207.33 747.35 207.317 747.35 207.303 747.35 207.29L747.35 204.77C747.349 204.479 747.25 204.198 747.07 203.97 745.334 202.055 744.384 199.555 744.41 196.97 744.41 190.6 749.13 185.41 754.92 185.41 760.71 185.41 765.43 190.62 765.43 197 765.456 199.585 764.506 202.085 762.77 204 762.583 204.225 762.48 204.508 762.48 204.8L762.48 207.32C762.497 207.999 761.96 208.563 761.281 208.58 761.26 208.581 761.24 208.581 761.22 208.58L760.38 208.58C759.698 208.585 759.141 209.128 759.12 209.81ZM773.28 215.41C773.05 215.639 772.769 215.81 772.46 215.91 773.008 216.932 772.623 218.205 771.601 218.753 770.579 219.301 769.306 218.916 768.758 217.894 768.465 217.346 768.429 216.697 768.66 216.12L761.12 212.76 761.12 210.55 761.22 210.55C761.888 210.566 762.545 210.374 763.1 210L769.92 213C770.42 211.954 771.674 211.511 772.72 212.011 773.767 212.512 774.209 213.765 773.709 214.812 773.602 215.035 773.457 215.237 773.28 215.41ZM772.15 205.19C771.312 205.188 770.554 204.689 770.22 203.92L764.49 206.12 764.49 205C765.298 203.999 765.971 202.897 766.49 201.72L768.92 200.79C768.844 200.571 768.803 200.342 768.8 200.11 768.8 198.95 769.74 198.01 770.9 198.01 772.06 198.01 773 198.95 773 200.11 773.004 200.457 772.925 200.8 772.77 201.11 773.88 201.426 774.524 202.581 774.209 203.692 773.95 204.604 773.108 205.228 772.16 205.21Z"/></g></svg>