<svg width="96" height="96" xmlns="http://www.w3.org/2000/svg" xmlns:xlink="http://www.w3.org/1999/xlink" xml:space="preserve" overflow="hidden"><g transform="translate(-472 -353)"><path d="M520 373C521.1 373 522 373.9 522 375 522 376.1 521.1 377 520 377 518.9 377 518 376.1 518 375 518 373.9 518.9 373 520 373ZM532 433C532 431.9 531.1 431 530 431L523 431 523 380.2C523.9 379.7 524.7 378.9 525.2 378L544.4 378 538.8 407 542.9 407 547.3 384.2 552.9 407 557 407 549.7 378 551 378C552.7 378 554 376.7 554 375 554 373.3 552.7 372 551 372L525.2 372C524.7 371.1 523.9 370.3 523 369.8L523 364C523 362.3 521.7 361 520 361 518.3 361 517 362.3 517 364L517 369.8C516.1 370.3 515.3 371.1 514.8 372L489 372C487.3 372 486 373.3 486 375 486 376.4 487 377.7 488.4 377.9L482.7 407 486.8 407 491.2 384.2 496.9 407 501 407 493.7 378 514.7 378C515.2 378.9 516 379.7 516.9 380.2L516.9 431 509.9 431C508.8 431 507.9 431.9 507.9 433L507.9 435 496 435 496 441 544 441 544 435 532 435 532 433Z"/><path d="M504 410 480 410C480 413.3 485.4 416 492 416 498.6 416 504 413.3 504 410Z"/><path d="M536 410C536 413.3 541.4 416 548 416 554.6 416 560 413.3 560 410L536 410Z"/></g></svg>