<svg width="96" height="96" xmlns="http://www.w3.org/2000/svg" xmlns:xlink="http://www.w3.org/1999/xlink" xml:space="preserve" overflow="hidden"><g transform="translate(-339 -348)"><path d="M413.8 369.8C411.4 369.8 409.4 367.8 409.4 365.4 409.4 363 411.4 361 413.8 361 416.2 361 418.2 363 418.2 365.4L418.2 365.4C418.2 367.8 416.2 369.8 413.8 369.8 413.8 369.8 413.8 369.8 413.8 369.8ZM413.8 355C410.4 355 407.2 356.7 405.3 359.5 403.4 362.3 403 365.9 404.2 369.1L408.9 379.4 412.9 387.9C413.2 388.4 413.8 388.6 414.2 388.3 414.4 388.2 414.5 388.1 414.6 387.9L418.6 379.4 423.3 369.1C424.5 365.9 424.1 362.3 422.2 359.5 420.4 356.7 417.2 355 413.8 355Z"/><path d="M362.8 409.8C359.8 409.8 357.3 407.3 357.3 404.3 357.3 401.3 359.8 398.8 362.8 398.8 365.8 398.8 368.3 401.3 368.3 404.3 368.3 404.3 368.3 404.3 368.3 404.3 368.3 407.3 365.8 409.8 362.8 409.8 362.8 409.8 362.8 409.8 362.8 409.8L362.8 409.8ZM362.8 391.5C358.6 391.5 354.6 393.6 352.2 397.1 349.8 400.6 349.3 405.1 350.9 409L356.7 421.8 361.7 432.3C362 432.9 362.8 433.1 363.4 432.8 363.6 432.7 363.8 432.5 363.9 432.3L368.9 421.8 374.7 409C376.2 405.1 375.7 400.6 373.4 397.1 371 393.6 367 391.5 362.8 391.5L362.8 391.5Z"/><path d="M376.8 433 374.2 433C373 433 371.9 433 370.8 433L370.8 427C371.8 427 373 427 374.2 427L376.8 427 376.8 433Z"/><path d="M380.9 433 380.9 427C383.1 427 385 427 386.8 426.9L387 432.9C385.1 433 383.1 433 380.9 433Z"/><path d="M391 432.7 390.7 426.7C392.8 426.6 394.8 426.5 396.5 426.3L397.1 432.3C395.3 432.5 393.2 432.6 391 432.7L391 432.7Z"/><path d="M401.3 431.8 400.4 425.9C402.3 425.6 404.1 425.3 405.9 424.8L407.5 430.6C405.4 431.1 403.4 431.5 401.3 431.8Z"/><path d="M411.7 429.1 409.3 423.6C410.6 423.2 411.7 422.3 412.5 421.2L417.8 424.1C416.3 426.4 414.2 428.1 411.7 429.1L411.7 429.1Z"/><path d="M412.6 419.2C412.4 417.9 411.8 416.6 410.9 415.7L415.1 411.5C417 413.4 418.2 415.8 418.5 418.5L412.6 419.2Z"/><path d="M408.4 413.9C406.8 413.1 405.1 412.4 403.4 411.9L405.1 406.2C407.2 406.8 409.3 407.6 411.2 408.6L408.4 413.9Z"/><path d="M399.6 410.9 398 410.5C396.6 410.1 395.1 409.8 393.7 409.4L395.3 403.6C396.6 404 398 404.3 399.4 404.7L401 405.1 399.6 410.9Z"/><path d="M389.6 408C387.2 407.1 385 405.6 383.4 403.6L388.3 400.2C389.2 401.3 390.5 402.1 391.8 402.5L389.6 408Z"/><path d="M387.9 398.2 381.9 397.8C382.1 394.9 383.7 392.3 386 390.6L389.7 395.3C387.9 396.8 387.9 397.9 387.9 398.2L387.9 398.2Z"/><path d="M392.5 393.8 390.1 388.3C392.1 387.4 394.2 386.7 396.3 386.2L397.7 392C395.9 392.5 394.2 393.1 392.5 393.8L392.5 393.8Z"/><path d="M401.4 391.3 400.4 385.4C403 385 405.2 384.7 406.6 384.6L407.1 390.6C406.1 390.7 403.9 390.9 401.4 391.3L401.4 391.3Z"/></g></svg>