<svg width="96" height="96" xmlns="http://www.w3.org/2000/svg" xmlns:xlink="http://www.w3.org/1999/xlink" xml:space="preserve" overflow="hidden"><g transform="translate(-585 -484)"><path d="M673 531C673 527.7 670.3 525 667 525L648 525C646.4 525 645.1 523.7 645 522.1 645.1 520.3 648 516.7 648 503 648 499.7 645.3 497 642 497 638.7 497 636 499.7 636 503 636 518.2 618.3 526.8 618 527L618 559C625.1 559 625.6 567 639 567 643.5 567 657 567 657 567 660.3 567 663 564.3 663 561 663 559.4 662.4 558 661.4 557 661.6 557 661.8 557 662 557 665.3 557 668 554.3 668 551 668 549.4 667.4 547.9 666.3 546.8 669 546.2 671 543.8 671 541 671 539.3 670.3 537.7 669.1 536.6 671.4 535.8 673 533.6 673 531Z"/><path d="M608 522 593 522 593 564 608 564C610.2 564 612 562.2 612 560L612 526C612 523.8 610.2 522 608 522Z"/></g></svg>