<svg width="96" height="96" xmlns="http://www.w3.org/2000/svg" xmlns:xlink="http://www.w3.org/1999/xlink" xml:space="preserve" overflow="hidden"><g transform="translate(-69 -350)"><path d="M89.9 407.6 109.1 388.4 98.4 388.4C101.9 381.6 109 376.9 117.2 376.9 122.5 376.9 127.4 378.9 131.1 382.2L150.6 382.2C144.7 369.6 131.9 361 117.2 361 100.1 361 85.7 372.6 81.5 388.4L70.7 388.4 89.9 407.6Z"/><path d="M163.6 407.6 144.4 388.4 125.2 407.6 136 407.6C132.5 414.4 125.4 419.1 117.2 419.1 111.9 419.1 107 417.1 103.3 413.8L83.7 413.8C89.7 426.4 102.4 435 117.2 435 134.3 435 148.7 423.4 152.9 407.6L163.6 407.6Z"/></g></svg>