<svg width="96" height="96" xmlns="http://www.w3.org/2000/svg" xmlns:xlink="http://www.w3.org/1999/xlink" xml:space="preserve" overflow="hidden"><g transform="translate(-451 -247)"><path d="M494 256.33C492.47 256.49 487 263.41 488.67 266.33 491.06 270.5 496.4 269.89 499.57 269.39 502.74 268.89 503.06 267.21 505.06 268.39 507.06 269.57 511.5 273.84 511.83 277.51 512.16 281.18 512.31 289.33 513 292.17 513.69 295.01 515 299.38 513.68 300.33 511.92 301.56 507.57 297.19 501.13 297.19 494.13 297.19 491.13 302.67 489.68 302.67 487.68 302.67 485.68 299.26 478.88 299.26 470.88 299.26 466.18 307.44 466.18 307.44L466.18 328.69C466.18 328.69 472.26 334.88 479.76 334.88 485.04 334.88 489.48 331.25 492.01 330.88 494.54 330.51 499.83 332.03 503.31 331.45 511.31 330.11 518.31 323.95 522.63 321.11 526.95 318.27 533.5 314.83 535 313.17 536.5 311.51 534.67 301.17 530 288.5 525.33 275.83 514.5 261.33 511.67 259.5 508.84 257.67 498.83 255.83 494 256.33Z"/></g></svg>