<svg width="96" height="96" xmlns="http://www.w3.org/2000/svg" xmlns:xlink="http://www.w3.org/1999/xlink" xml:space="preserve" overflow="hidden"><g transform="translate(-692 -253)"><path d="M718 312.64C721.314 312.64 724 315.326 724 318.64 724 321.954 721.314 324.64 718 324.64 714.686 324.64 712 321.954 712 318.64 712.004 315.328 714.688 312.644 718 312.64M718 310.64C713.582 310.64 710 314.222 710 318.64 710 323.058 713.582 326.64 718 326.64 722.418 326.64 726 323.058 726 318.64 726 314.222 722.418 310.64 718 310.64Z"/><path d="M766.5 305.8C769.814 305.8 772.5 308.486 772.5 311.8 772.5 315.114 769.814 317.8 766.5 317.8 763.186 317.8 760.5 315.114 760.5 311.8 760.504 308.488 763.188 305.804 766.5 305.8M766.5 303.8C762.082 303.8 758.5 307.382 758.5 311.8 758.5 316.218 762.082 319.8 766.5 319.8 770.918 319.8 774.5 316.218 774.5 311.8 774.5 307.382 770.918 303.8 766.5 303.8Z"/><path d="M736.75 267.61C740.064 267.61 742.75 270.296 742.75 273.61 742.75 276.924 740.064 279.61 736.75 279.61 733.436 279.61 730.75 276.924 730.75 273.61 730.754 270.298 733.438 267.614 736.75 267.61M736.75 265.61C732.332 265.61 728.75 269.192 728.75 273.61 728.75 278.028 732.332 281.61 736.75 281.61 741.168 281.61 744.75 278.028 744.75 273.61 744.75 269.192 741.168 265.61 736.75 265.61Z"/><path d="M773.983 288.036C773.508 287.755 772.894 287.912 772.613 288.387 772.613 288.387 772.613 288.387 772.613 288.387L768.763 294.887C768.756 294.898 768.748 294.897 768.745 294.887 766.445 284.78 758.958 276.651 749.074 273.529 748.803 273.445 748.529 273.364 748.254 273.288 747.726 273.127 747.167 273.426 747.006 273.954 746.846 274.482 747.144 275.041 747.672 275.202 747.687 275.206 747.702 275.21 747.717 275.214 747.973 275.285 748.227 275.36 748.479 275.439 757.83 278.393 764.863 286.157 766.879 295.754 766.879 295.766 766.879 295.771 766.864 295.765L759.887 291.633C759.407 291.36 758.797 291.527 758.523 292.007 758.256 292.475 758.408 293.07 758.867 293.353L767.727 298.6C767.955 298.735 768.227 298.774 768.484 298.709 768.741 298.643 768.962 298.478 769.097 298.25L774.333 289.406C774.615 288.931 774.458 288.318 773.983 288.036Z"/><path d="M760.792 320.564C760.406 320.169 759.773 320.162 759.378 320.548 759.378 320.548 759.377 320.549 759.377 320.549 759.187 320.734 758.996 320.917 758.801 321.097 751.567 327.717 741.327 329.925 732.008 326.873 731.996 326.873 731.995 326.861 732.008 326.855L739.076 322.878C739.557 322.607 739.728 321.997 739.457 321.516 739.186 321.035 738.576 320.864 738.095 321.135L729.121 326.185C728.64 326.455 728.468 327.065 728.739 327.547 728.739 327.547 728.739 327.547 728.739 327.547L733.779 336.503C734.05 336.985 734.66 337.155 735.141 336.884 735.623 336.614 735.794 336.004 735.523 335.522L731.823 328.94C731.817 328.928 731.823 328.922 731.834 328.926 734.612 329.794 737.505 330.235 740.415 330.235 747.727 330.244 754.775 327.507 760.165 322.566 760.374 322.374 760.579 322.177 760.783 321.978 761.176 321.59 761.18 320.957 760.792 320.564Z"/><path d="M724.288 278.18C724.103 277.992 723.852 277.884 723.588 277.88L713.311 277.766 713.3 277.766C712.748 277.763 712.297 278.208 712.294 278.76 712.292 279.313 712.737 279.763 713.289 279.766L720.845 279.85C720.858 279.85 720.861 279.858 720.851 279.867 713.248 286.912 709.952 297.46 712.191 307.58 712.253 307.858 712.32 308.135 712.391 308.412 712.505 308.853 712.903 309.161 713.358 309.162 713.443 309.162 713.527 309.151 713.609 309.13 714.143 308.992 714.465 308.447 714.327 307.912 714.26 307.656 714.198 307.399 714.141 307.141 712.024 297.566 715.232 287.594 722.534 281.049 722.544 281.041 722.552 281.049 722.551 281.057L722.462 289.166C722.456 289.718 722.899 290.171 723.451 290.177 723.451 290.177 723.451 290.177 723.451 290.177L723.462 290.177C724.01 290.177 724.456 289.736 724.462 289.188L724.576 278.888C724.578 278.623 724.474 278.369 724.288 278.18Z"/></g></svg>