<svg width="96" height="96" xmlns="http://www.w3.org/2000/svg" xmlns:xlink="http://www.w3.org/1999/xlink" xml:space="preserve" overflow="hidden"><g transform="translate(-70 -256)"><path d="M164.006 300.627 152.381 300.627 148.506 289.002 144.631 300.627 133.506 300.627 133.006 300.627 121.881 300.627 118.006 289.002 114.131 300.627 103.006 300.627 102.506 300.627 91.381 300.627 87.506 289.002 83.631 300.627 72.006 300.627 80.918 308.377 77.431 320.002 87.506 313.027 97.581 320.002 94.094 308.377 102.756 300.845 111.418 308.377 107.931 320.002 118.006 313.027 128.081 320.002 124.594 308.377 133.256 300.845 141.918 308.377 138.431 320.002 148.506 313.027 158.581 320.002 155.094 308.377 164.006 300.627Z"/></g></svg>