<svg width="96" height="96" xmlns="http://www.w3.org/2000/svg" xmlns:xlink="http://www.w3.org/1999/xlink" xml:space="preserve" overflow="hidden"><g transform="translate(-585 -368)"><path d="M673 417C672.99 420.31 670.31 422.99 667 423L648 423C646.393 423.028 645.083 424.295 645 425.9 645.1 427.7 648 431.3 648 445 648 448.314 645.314 451 642 451 638.686 451 636 448.314 636 445 636 429.8 618.3 421.2 618 421L618 389C625.1 389 625.6 381 639 381L657 381C660.31 381.01 662.99 383.69 663 387 663.023 388.494 662.447 389.934 661.4 391L662 391C665.31 391.01 667.99 393.69 668 397 668.015 398.57 667.403 400.082 666.3 401.2 669.521 401.901 671.565 405.08 670.864 408.301 670.605 409.49 669.99 410.571 669.1 411.4 671.463 412.241 673.03 414.492 673 417Z"/><path d="M608 426 593 426 593 384 608 384C610.206 384.007 611.993 385.794 612 388L612 422C611.993 424.206 610.206 425.993 608 426Z"/></g></svg>