<svg width="96" height="96" xmlns="http://www.w3.org/2000/svg" xmlns:xlink="http://www.w3.org/1999/xlink" xml:space="preserve" overflow="hidden"><g transform="translate(-211 -250)"><path d="M218.431 314 228.506 307.025 238.581 314 235.094 302.376 243.756 294.844 252.418 302.376 248.931 314 259.006 307.025 269.081 314 265.594 302.376 274.256 294.844 282.918 302.376 279.431 314 289.506 307.025 299.581 314 296.093 302.376 305.006 294.626 293.381 294.626 289.506 283 285.631 294.626 262.881 294.626 259.006 283 255.131 294.626 232.381 294.626 228.506 283 224.631 294.626 213.006 294.626 221.918 302.376ZM285.631 296.625 287.072 296.625 287.528 295.258 289.506 289.325 291.484 295.258 291.939 296.625 299.658 296.625 294.781 300.866 293.807 301.713 294.178 302.95 296.024 309.105 290.644 305.381 289.506 304.593 288.367 305.381 282.987 309.105 284.834 302.95 285.205 301.713 284.231 300.866 279.354 296.625Z"/></g></svg>